<?xml version="1.0" standalone="no"?>
<!DOCTYPE svg PUBLIC "-//W3C//DTD SVG 20010904//EN"
 "http://www.w3.org/TR/2001/REC-SVG-20010904/DTD/svg10.dtd">
<svg version="1.0" xmlns="http://www.w3.org/2000/svg"
 width="500.000000pt" height="524.000000pt" viewBox="0 0 500.000000 524.000000"
 preserveAspectRatio="xMidYMid meet">
<metadata>
Created by potrace 1.16, written by Peter Selinger 2001-2019
</metadata>
<g transform="translate(0.000000,524.000000) scale(0.100000,-0.100000)"
fill="#000000" stroke="none">
<path d="M1013 4537 c-281 -249 -511 -455 -510 -459 3 -10 511 -587 517 -587
4 -1 978 855 1024 899 4 5 -110 141 -254 304 -144 163 -262 296 -263 296 -1
-1 -232 -204 -514 -453z"/>
<path d="M3398 4783 c-101 -114 -218 -247 -262 -296 -76 -86 -78 -89 -60 -106
11 -10 115 -103 233 -207 118 -104 341 -300 495 -436 153 -137 282 -248 285
-247 7 0 515 578 518 588 1 5 -361 327 -932 829 l-94 82 -183 -207z"/>
<path d="M2270 4288 c-157 -138 -395 -348 -529 -467 -135 -119 -288 -254 -342
-301 -394 -346 -627 -555 -624 -558 2 -3 104 -15 227 -28 123 -12 375 -39 561
-59 l338 -36 326 291 c179 159 329 290 332 290 3 0 152 -131 331 -291 l325
-291 50 7 c28 3 279 30 558 59 280 30 510 56 513 59 3 2 -84 83 -193 179 -109
96 -403 356 -653 578 -785 695 -921 815 -928 818 -4 1 -135 -111 -292 -250z"/>
<path d="M777 2838 c4 -7 75 -110 158 -228 82 -119 481 -692 885 -1273 404
-581 737 -1057 740 -1057 3 1 82 112 176 248 208 302 935 1350 1321 1905 157
225 282 411 280 414 -3 2 -112 -7 -243 -21 -132 -14 -374 -40 -539 -57 -226
-23 -305 -35 -322 -48 -12 -9 -167 -225 -343 -481 -177 -256 -324 -466 -329
-468 -4 -1 -155 214 -337 478 -292 426 -332 480 -359 485 -16 3 -178 21 -360
40 -181 19 -415 44 -520 55 -225 24 -218 23 -208 8z"/>
<path d="M809 2053 c-68 -65 -176 -166 -239 -225 l-115 -108 56 -57 c31 -32
221 -236 424 -453 202 -217 382 -410 400 -428 l32 -34 177 157 c97 86 176 159
176 163 0 4 -761 1072 -780 1095 -4 4 -63 -45 -131 -110z"/>
<path d="M3782 1621 c-216 -301 -392 -551 -392 -554 0 -3 79 -77 177 -163
l176 -158 41 46 c23 26 226 243 451 483 226 240 410 440 410 445 0 7 -326 319
-430 412 l-42 37 -391 -548z"/>
</g>
</svg>
